<?xml version="1.0" encoding="UTF-8"?>
<svg id="Capa_2" xmlns="http://www.w3.org/2000/svg" viewBox="0 0 4000 1181.25">
  <defs>
    <style>
      .cls-1 {
        fill: #122d50;
      }

      .cls-2 {
        fill: #5b9bd5;
      }

      .cls-3 {
        fill: #f7931e;
      }

      .cls-4 {
        fill: #ff2727;
      }
    </style>
  </defs>
  <g>
    <path class="cls-1" d="M319.77,713.93h-54v-246.6h54v246.6Z"/>
    <path class="cls-1" d="M769.77,467.33v216.45c0,7.5-1.95,14.03-5.85,19.57-3.9,5.55-8.77,9.75-14.62,12.6s-12.23,4.05-19.12,3.6c-6.9-.45-13.2-3.08-18.9-7.88l-220.05-177.75v180h-53.55v-216.45c0-7.5,1.95-14.1,5.85-19.8,3.9-5.7,8.77-9.9,14.62-12.6,5.85-2.7,12.15-3.82,18.9-3.38,6.75.45,12.97,3.08,18.67,7.88l220.5,177.3v-179.55h53.55Z"/>
    <path class="cls-1" d="M942.12,713.93h-54v-157.95c0-12.3,2.32-23.85,6.98-34.65,4.65-10.8,10.95-20.17,18.9-28.12,7.95-7.95,17.33-14.25,28.12-18.9,10.8-4.65,22.35-6.98,34.65-6.98h207.45v54h-207.45c-9.6,0-17.77,3.38-24.52,10.12s-10.12,14.93-10.12,24.52v34.65h242.1v54h-242.1v69.3Z"/>
    <path class="cls-1" d="M1347.12,713.93h-54v-246.6h54v246.6Z"/>
    <path class="cls-1" d="M1797.11,467.33v216.45c0,7.5-1.95,14.03-5.85,19.57-3.9,5.55-8.78,9.75-14.62,12.6s-12.23,4.05-19.12,3.6c-6.9-.45-13.21-3.08-18.9-7.88l-220.05-177.75v180h-53.55v-216.45c0-7.5,1.95-14.1,5.85-19.8,3.9-5.7,8.77-9.9,14.62-12.6,5.85-2.7,12.15-3.82,18.9-3.38,6.75.45,12.97,3.08,18.67,7.88l220.5,177.3v-179.55h53.55Z"/>
    <path class="cls-1" d="M1969.46,713.93h-54v-246.6h54v246.6Z"/>
    <path class="cls-1" d="M2087.36,467.33h319.5v54h-130.05v192.6h-59.4v-192.6h-130.05v-54Z"/>
    <path class="cls-1" d="M2679.11,606.38c-6.91,0-12.98-.9-18.23-2.7-5.25-1.8-10.43-5.25-15.52-10.35l-126.9-126.9h75.6l86.4,86.4h51.3l86.85-86.4h75.6l-127.35,126.9c-4.8,5.1-9.9,8.55-15.3,10.35-5.4,1.8-11.55,2.7-18.45,2.7v107.55h-54v-107.55Z"/>
  </g>
  <g>
    <path class="cls-3" d="M3646.12,820.09c-.39,1.3-.94,2.61-1.68,3.9-.59,1.03-1.25,1.97-1.98,2.82,1.15-1.47,2.64-3.72,3.66-6.72Z"/>
    <path class="cls-1" d="M3472.9,537.16c18.28,50.74,10.22,103.98-18.76,146.31-89.96,38.66-174.22,70.03-271.86,76.18,26.58-6.54,51.8-13.07,75.95-19.85-18-7.75-34.57-18.76-48.77-32.6,2.48-1.75,4.94-3.53,7.4-5.34,27.87-20.61,35.1-31.44,90.29-90.86,56.98-61.35,94.58-98.59,127.15-122.69,2.12-1.57,4.23-3.1,6.32-4.55,13.78,15.07,24.87,33.02,32.29,53.39Z"/>
    <path class="cls-1" d="M3445.87,694.46c-35.77,44.84-99.99,67.72-156.35,55.21,50.32-12.31,104.34-33.35,156.35-55.21Z"/>
    <path class="cls-1" d="M3077.81,578.46c-2.95-5.8-6.83-10.89-11.38-15.17,3.05-2.55,6.15-5.12,9.29-7.71,99.59-82.15,239.79-180.97,285.98-212.9,7.38-5.1,12.36-8.49,14.4-9.84-3.63,2.84-7.16,5.59-10.59,8.27-109.04,85.13-119.81,93.69-216.95,174.07-7.53,6.23-15.57,12.89-24.22,20.05-15.05,12.46-7.9,6.54-46.53,43.23Z"/>
    <path class="cls-1" d="M3631.16,565.97c-14.96,16.87-32.52,32.19-50.45,45.7-8.9,6.7-17.88,12.95-26.7,18.72-18.76,12.3-36.75,22.44-51.35,30.1-6.76,3.54-12.8,6.56-17.86,9.02-3.38,1.64-6.32,3.03-8.74,4.17,5.2-9.12,9.48-18.75,12.81-28.71,65.04-41.14,101.48-79.33,115.43-92.12,2.09-2,4.14-4.06,6.16-6.17,4.3,9.1,11.84,15.83,20.7,19.29Z"/>
    <path class="cls-1" d="M3671.93,491.43c-.65,3.1-1.42,6.18-2.31,9.23-7.22-5.97-16.49-9.19-26.03-8.8,5.5-25.59-6.49-49.26-53.01-60.7-7.19-1.73-17.23-3.15-37.2-1.07-105.33,10.69-156.19,74.06-247.1,168.98-63.17,67.68-61.7,71.14-104.06,100.59-32.35,21.83-67.16,37.94-106.09,46.28-62.2,13.56-110.32-.68-127.43-29.15,0,0-10.94-20.64,2.03-54.95,2.33-6.15,7.52-13.87,15.05-22.82,4.53,5.46,10.03,9.95,16.15,13.27-5.61,7.64-10.92,17.25-11.66,26.95-3.67,59.78,74.3,46.99,125.41,32.57,25.47-7.86,48.85-19.4,70.48-33.32-6.15-9.68-11.35-20.16-15.43-31.38-25.6-70.91.47-138.4,49.09-178.53,9.4-7.77,19.65-14.51,30.54-20.05,44.09-22.47,98.59-25.3,149.49,3.03-15.43,14.79-28.81,31.61-39.81,49.94,16.45-14.74,32.89-29.47,49.33-44.23,43.08-32.84,99.13-47.55,102.39-48.11,32-9.21,98.73-11.19,129.09,9.71,20.21,12.71,36.94,27.76,31.06,72.53Z"/>
    <path class="cls-3" d="M3021.95,348.38c-.89.76-1.74,1.57-2.55,2.45.65-.89,1.51-1.7,2.55-2.45Z"/>
    <path class="cls-3" d="M3104.68,511.62c-10.18-12.02-19.49-23.41-27.94-34.17,10.13,12.22,20.06,24.72,27.94,34.17Z"/>
    <path class="cls-3" d="M3094.85,346.01c-4.99-.98-10.19-1.94-15.58-2.9,6.51.8,11.22,1.88,15.58,2.9Z"/>
    <path class="cls-1" d="M3278.26,387.75c-5.25,2.91-10.53,5.9-15.83,8.98-35.86-14.11-66.63-24.19-90.43-31.27,0,0,0,0,0,0-22.39-6.67-40.63-10.92-77.11-19.44-.01,0-.02,0-.04,0-4.36-1.02-9.07-2.1-15.58-2.9-19.42-2.39-47.16-1.94-57.32,5.27-1.04.74-1.9,1.56-2.55,2.45h0c-13.47,18.54,5.65,60.74,57.34,126.62,8.45,10.76,17.76,22.15,27.94,34.17-3.29,2.94-6.58,5.91-9.88,8.92-4.25-3.85-8.27-7.5-11.8-10.71-1.24-2.36-120.88-108.43-108.13-157.9,5.7-19.75,30.35-28.34,39.71-31.6,38.83-17,128.37,1.7,244.83,58.08h0s0,.01,0,.01c6.22,3,12.5,6.11,18.85,9.33Z"/>
    <path class="cls-1" d="M3661.49,858.62c-5.24,4-10.5,5.63-13.52,6.38-76.81,14.83-227.85-57.76-290.05-102.81,7.35-1.67,14.85-3.78,22.32-6.45,34.82,18.12,133.4,66.06,201.61,79.34,15.76,2.22,30.42,3.12,40.38,1.23,5.02-.96,14.51-2.75,20.23-9.5.73-.85,1.4-1.79,1.98-2.82.74-1.29,1.29-2.6,1.68-3.9.04-.11.07-.22.1-.33,2.84-8.75-.57-17.11-1.89-20.36,0-.01,0-.03-.01-.04-13.26-32.4-66.24-87.55-97.83-118.64,0,0,0,0,0,0-8.41-8.28-15.3-14.86-19.52-18.84,6.13-3.34,12.17-7.09,17.98-11.32,14.32,14.67,28.69,29.62,43.12,44.82,8.29,8.75,16.5,17.47,24.62,26.17,5.96,6.39,11.87,12.76,17.73,19.13.02.01.03.04.06.06,13.36,15.19,25.62,31.15,35.76,48.04,11.96,19.9,17.46,52.16-4.73,69.85Z"/>
    <path class="cls-4" d="M3067.6,589.41c7.87,21.62-3.28,45.52-24.9,53.39-10.73,3.91-22.03,3.13-31.64-1.3-6.23-2.86-11.76-7.26-15.96-12.89-2.39-3.19-4.35-6.77-5.78-10.71-7.87-21.62,3.28-45.52,24.9-53.39,14.75-5.37,30.56-1.88,41.61,7.73,4.92,4.28,8.9,9.76,11.42,16.23.12.31.24.62.35.93Z"/>
    <path class="cls-2" d="M3671.99,520.45c5.4,14.83-2.25,31.23-17.08,36.63-5.63,2.05-11.49,2.22-16.89.82-8.82-2.27-16.4-8.71-19.74-17.91-.17-.48-.33-.96-.48-1.44-4.41-14.44,3.2-29.97,17.56-35.19,1.72-.63,3.47-1.08,5.21-1.36,9.57-1.56,19.18,1.89,25.6,8.86,2.49,2.7,4.49,5.92,5.82,9.58Z"/>
  </g>
</svg>