<?xml version="1.0" encoding="UTF-8"?>
<svg id="ENTERO_FINAL" data-name="ENTERO FINAL" xmlns="http://www.w3.org/2000/svg" viewBox="0 0 2000 2000">
  <path d="M1574.14,1814.43c-2.06,2.75-4.5,5.4-7.37,7.83-2.29,1.94-4.69,3.6-7.17,5,4.01-2.51,9.52-6.58,14.55-12.83Z" style="fill: #fff;"/>
  <path d="M1406.83,990.42c-.45,136.69-65.79,256.51-171.52,332.21-247.78,14.1-475.65,15.77-713.54-54.24,68.97,7.46,134.7,13.78,198.1,18.57-36.14-34.05-66.07-74.65-87.89-119.92,7.43-2.01,14.83-4.11,22.24-6.3,84.25-24.93,110.86-44.45,293.81-138.13,188.89-96.72,310.75-152.83,409.19-181.99,6.42-1.9,12.76-3.7,19-5.35,19.76,47.85,30.62,100.22,30.62,155.16Z" style="fill: #fff;"/>
  <path d="M1206.09,1341.62c-124.08,75.8-296.85,74.61-420.25-4.04,130.52,14.31,277.42,11.03,420.25,4.04Z" style="fill: #fff;"/>
  <path d="M430.03,746.28c-1.99-16.36-6.81-31.86-13.95-45.98,9.48-3.43,19.1-6.87,28.82-10.31,308.4-109.33,727.99-223.15,865.7-259.16,22.01-5.74,36.81-9.52,42.82-10.96-11.11,3.6-21.9,7.1-32.41,10.52-333.5,108.23-366.59,119.29-667.61,226.51-23.33,8.31-48.26,17.2-75.07,26.75-46.66,16.64-24.49,8.73-148.3,62.64Z" style="fill: #fff;"/>
  <path d="M1758.8,1196.21c-50.26,27.21-105.36,48.48-159.78,65.1-27,8.24-53.82,15.34-79.82,21.44-55.35,13.03-106.97,21.58-148.4,27.19-19.17,2.58-36.18,4.54-50.35,6.02-9.46.99-17.67,1.75-24.44,2.35,20.29-17.21,38.83-36.43,55.4-57.28,190.57-41.62,310.48-100.97,354.79-119.34,6.71-2.96,13.39-6.08,20.02-9.36,2.35,25.4,14.48,47.97,32.58,63.89Z" style="fill: #fff;"/>
  <path d="M1920.52,1054.04c-4.23,6.83-8.73,13.49-13.51,19.98-12.01-20.48-31.32-36.18-54.36-43.52,35.29-56.18,27.24-122.94-73.65-190.52-15.63-10.35-38.3-22.45-87.67-34.78-260.14-65.85-436.21,41-735.01,188.26-209.13,106.44-208.62,115.96-335.05,149.38-95.96,23.94-192.85,32.13-292.8,18.27-159.9-21.63-262.16-97.25-278.22-179.9,0,0-8.17-58.64,52.47-129.11,10.88-12.63,29.94-26.51,55.63-41.29,6.05,16.94,15.28,32.39,26.95,45.61-19.98,13.34-40.95,31.62-51.15,54.09-60.56,139.2,136.23,176.33,270.46,186.29,67.48,3.35,133.17-3.86,196.74-18.27-6.25-28.38-9.55-57.86-9.55-88.11.51-191.08,121.09-329.24,271.7-382.66,29.13-10.35,59.39-17.52,90.11-21.28,124.49-15.29,256.74,25.22,353.43,136.81-49.58,21.85-96.03,50.3-138.12,84.44,51.95-20.85,103.89-41.68,155.84-62.57,131.08-40.87,277.32-27.31,285.58-25.81,84.2,5.81,244.85,58.93,299.04,135.02,37.13,47.78,63.91,98.13,11.11,199.67Z" style="fill: #fff;"/>
  <path d="M496.44,149.87c-2.79,1.04-5.51,2.24-8.19,3.62,2.31-1.56,5.06-2.75,8.19-3.62Z" style="fill: #fff;"/>
  <path d="M551.97,610.39c-13.83-37.47-26.13-72.66-36.93-105.61,13.53,37.88,26.36,76.26,36.93,105.61Z" style="fill: #fff;"/>
  <path d="M672.13,207.42c-11.05-6.66-22.58-13.46-34.6-20.41,14.82,7.54,25.1,14.21,34.6,20.41Z" style="fill: #fff;"/>
  <path d="M1072.78,465.83c-15.04,2.38-30.2,4.93-45.49,7.66-73.19-64.69-137.73-115.36-188.26-152.87,0,0-.02,0-.02-.02-47.55-35.29-87.31-61.24-166.8-113.14-.03-.02-.05-.03-.08-.05-9.5-6.2-19.78-12.86-34.6-20.41-44.18-22.52-110.64-45.49-141.09-37.15-3.13.87-5.88,2.06-8.19,3.62h-.02c-48.14,32.47-39.2,149.57,26.81,351.29,10.79,32.95,23.09,68.14,36.93,105.61-10.38,4.15-20.8,8.36-31.27,12.68-6.8-12.85-13.19-25.03-18.81-35.74-.92-6.7-193.9-363.03-120.67-469.82,30.69-42.11,96.84-41.19,121.96-40.83,107.22-6.81,304.27,115.33,532.78,350.56l.02.02v.02c12.2,12.54,24.47,25.39,36.81,38.56Z" style="fill: #fff;"/>
  <path d="M1577.35,1919.53c-15.94,5-29.89,4.32-37.72,3.47-195.79-31.27-492.6-335.08-601.7-496.31,18.95,2.38,38.64,3.86,58.74,3.98,67.22,73.34,260.47,272.97,411.4,363.75,35.62,18.95,69.76,33.8,95.11,37.95,12.78,2.07,36.94,6.03,56.42-5.1,2.48-1.39,4.88-3.06,7.17-5,2.87-2.43,5.32-5.08,7.37-7.83.19-.24.36-.46.53-.7,14.34-18.37,13.48-41.26,13.14-50.13.02-.03.02-.07,0-.1-3.5-88.67-81.87-265.94-130.15-367.38,0-.02-.02-.02-.02-.02-12.85-27-23.57-48.65-30.16-61.8,17.49-2.63,35.12-6.34,52.64-11.37,21.39,47.36,42.67,95.41,63.84,144.13,12.17,28.02,24.15,55.92,35.94,83.67,8.65,20.37,17.2,40.68,25.64,60.92.03.05.05.12.08.19,18.66,47.77,34.02,96.4,43.54,145.42,11.23,57.76-3.64,139.37-71.81,162.26Z" style="fill: #fff;"/>
  <path d="M396.21,763.51c0,58.3-47.27,105.58-105.58,105.58-28.94,0-55.18-11.64-74.24-30.52-12.35-12.22-21.72-27.48-26.85-44.54-2.92-9.67-4.49-19.9-4.49-30.52,0-58.3,47.27-105.58,105.58-105.58,39.78,0,74.43,22.01,92.41,54.5,8,14.44,12.73,30.96,13.14,48.55.02.83.03,1.68.03,2.53Z" style="fill: #ff2727;"/>
  <path d="M1895.51,1123.2c0,40-32.44,72.44-72.44,72.44-15.19,0-29.3-4.67-40.94-12.68-19.03-13.05-31.5-34.95-31.5-59.76,0-1.29.03-2.57.1-3.84,2.01-38.22,33.61-68.6,72.34-68.6,4.64,0,9.19.44,13.59,1.29,24.15,4.57,44.05,21.14,53.29,43.28,3.59,8.58,5.56,18,5.56,27.87Z" style="fill: #5b9bd5;"/>
</svg>